<svg width="17" height="20" xmlns="http://www.w3.org/2000/svg" xmlns:xlink="http://www.w3.org/1999/xlink" xmlns:svgjs="http://svgjs.com/svgjs" viewBox="0.063 0 16.873 20" fill="#fff"><svg xmlns="http://www.w3.org/2000/svg" width="17" height="20" viewBox="2.001 2 16.03 19"><path paint-order="stroke fill markers" fill-rule="evenodd" d="M14.628 12.12c1.153-1.361 1.914-2.673 2.41-3.874.17-.41.4-1.057.503-1.447.054-.202.11-.442.163-.713.012-.057.02-.11.032-.168l.037-.225c.13-.803.15-1.5.125-2.051-.021-.442-.056-.816-.031-.843l.041-.05c.106-.132.15-.267.105-.303l-.028-.021c-.016-.012-.004-.126.025-.257.03-.13-.06-.2-.204-.155-.142.044-.274.07-.293.056l-.034-.025c-.047-.035-.17.044-.273.175l-.029.04c-.015.023-.39.063-.83.15a9.82 9.82 0 0 0-3.285 1.325c-2.136 1.3-3.488 3.122-4.11 4.105-.237.375-.763.642-1.21.627-3.594-.12-5.132 2.369-5.687 3.662-.175.407.095.731.543.724 7.91-.147 8.63 4.697 8.601 6.647-.007.442.274.659.658.43 2.874-1.71 2.684-4.944 2.418-6.427-.078-.435.066-1.043.353-1.383zm-.89-2.185a1.612 1.612 0 0 1-1.978.292c-.764-.434-1.03-1.38-.597-2.115.053-.092.115-.173.184-.248a1.613 1.613 0 0 1 1.978-.292c.762.432 1.03 1.38.596 2.115a1.546 1.546 0 0 1-.183.248zM6.78 20.611c1.419-.842 2.24-2.395 2.626-3.322.17-.409-.063-.612-.441-.374-1.488.934-2.283 2.4-2.65 3.284-.17.41.081.64.465.412zm-2.823.307c2.166-1.18 3.33-3.657 3.801-4.91.157-.415-.079-.615-.463-.388-2.275 1.347-3.386 3.67-3.83 4.869-.153.414.1.642.492.43zm-.509-2.884c1.419-.842 2.24-2.394 2.625-3.32.17-.41-.063-.612-.44-.375-1.488.934-2.283 2.398-2.65 3.283-.17.41.081.639.465.412z"/></svg></svg>