<svg width="24" height="22" xmlns="http://www.w3.org/2000/svg" xmlns:xlink="http://www.w3.org/1999/xlink" xmlns:svgjs="http://svgjs.com/svgjs" viewBox="0 0.055 24 21.891" fill="#fff"><svg xmlns="http://www.w3.org/2000/svg" width="24" height="22" viewBox="1.992 1.003 23.018 20.995"><path paint-order="stroke fill markers" fill-rule="evenodd" d="M23.61 1.003H3.394c-.772 0-1.402.642-1.402 1.422v14.75c0 .78.63 1.42 1.402 1.42H23.61c.77 0 1.4-.64 1.4-1.42V2.425c0-.78-.63-1.422-1.4-1.422zm-.353 15.126H3.745V2.997h19.512V16.13zM18.779 22H8.262l2.645-2.727h5.226l2.646 2.727zm-6.36-14.9c.518 0 .938.426.938.951 0 .526-.42.952-.938.952a.944.944 0 0 1-.937-.952c0-.525.42-.951.937-.951zM16.2 10.17c.518 0 .94.425.94.951 0 .527-.422.953-.94.953a.945.945 0 0 1-.938-.953c0-.526.42-.951.938-.951zm3.74-3.317c.517 0 .937.426.937.952 0 .525-.42.951-.938.951a.945.945 0 0 1-.937-.951c0-.526.42-.952.937-.952zm-13.215 4.74c.517 0 .937.426.937.951 0 .525-.42.95-.937.95a.944.944 0 0 1-.938-.95c0-.525.42-.951.938-.951zm9.423-.755l-3.69-3.182-6.025 4.756.312.573s5.284-4.343 5.636-4.54l3.779 3.262 3.995-3.66-.432-.485-3.575 3.276z"/></svg></svg>