<svg width="20" height="26" xmlns="http://www.w3.org/2000/svg" xmlns:xlink="http://www.w3.org/1999/xlink" xmlns:svgjs="http://svgjs.com/svgjs" viewBox="0.12 0 19.76 26" fill="#fff"><svg xmlns="http://www.w3.org/2000/svg" width="20" height="26" viewBox="2 2 19 25"><path paint-order="stroke fill markers" fill-rule="evenodd" d="M17.833 11.375c0 3.125-3.166 6.2-3.166 9.375H8.333c0-3.076-3.166-6.25-3.166-9.375 0-3.452 2.835-6.25 6.333-6.25 3.497 0 6.333 2.798 6.333 6.25zm-3.958 12.5h-4.75a.786.786 0 0 0-.792.781c0 .432.354.781.792.781h.145A2.363 2.363 0 0 0 11.5 27a2.363 2.363 0 0 0 2.23-1.563h.145c.438 0 .792-.349.792-.781a.786.786 0 0 0-.792-.781zm0-2.344h-4.75a.786.786 0 0 0-.792.781c0 .432.354.782.792.782h4.75c.438 0 .792-.35.792-.782a.786.786 0 0 0-.792-.78zM2.877 7.365l1.42.808c.22-.479.488-.927.797-1.35L3.668 6.01l-.791 1.355zm9.415-3.724V2h-1.584V3.64c.265-.027.52-.079.792-.079s.527.052.792.08zm-4.036.626l-.82-1.402-1.373.781.825 1.407c.428-.305.882-.569 1.368-.786zm11.867 3.098l-.791-1.355-1.426.813c.31.423.578.871.798 1.35l1.42-.808zm-3.188-3.719l-1.37-.781-.82 1.402a8 8 0 0 1 1.367.785l.823-1.406zM3.583 11.375c0-.269.053-.52.08-.781H2v1.562h1.667c-.031-.26-.084-.516-.084-.781zm15.753-.781c.028.26.08.512.08.78 0 .266-.052.523-.083.782H21v-1.562h-1.664zM18.036 16l1.296.738.791-1.353-1.438-.818c-.2.485-.416.961-.65 1.433zm-15.16-.615l.792 1.353 1.285-.73a21.919 21.919 0 0 1-.644-1.438l-1.432.815z"/></svg></svg>