<svg width="23" height="26" xmlns="http://www.w3.org/2000/svg" xmlns:xlink="http://www.w3.org/1999/xlink" xmlns:svgjs="http://svgjs.com/svgjs" viewBox="0.083 0 22.835 26" fill="#fff"><svg xmlns="http://www.w3.org/2000/svg" width="23" height="26" viewBox="2.012 1.971 21.981 25.028"><path paint-order="stroke fill markers" fill-rule="evenodd" d="M10.063 7.406a2.04 2.04 0 0 1 2.042 2.037 2.04 2.04 0 0 1-2.042 2.036 2.04 2.04 0 0 1-2.042-2.036 2.04 2.04 0 0 1 2.042-2.037zm4.438 8.315a1.307 1.307 0 1 1 0 2.612 1.307 1.307 0 0 1 0-2.612zm7.179-2.987C23.325 4.699 16.782 1.022 9.52 2.18 2.258 3.335 2.53 7.718 2.103 9.81c-.85 5.24 4.558 11.098 4.558 11.098l-.309 6.09h8.808l.674-2.8s.382.64 2.657.833c2.277.192 1.999-2.58 1.999-2.58s1.515-.667 1.515-1.167-.896-1.146-.896-1.146.964.174 1.312-.232c.347-.405-.426-1.868-.426-1.868s1.19-.029 1.889-.798c.7-.767-2.204-3.041-2.204-4.506zM9.1 13.832s-.05-.543-.073-.814a4.279 4.279 0 0 1-.633-.225l-.72.607-.122.068c-.04.022-.804-.068-.804-.068l-1.312-1.545v-.924s.505-.425.757-.64a3.364 3.364 0 0 1-.103-.634l-.99-.452-.266-.769.03-.126.848-1.84.896-.236.853.39c.174-.14.362-.268.56-.38l-.084-1.029.655-.653 2.023-.163.655.654s.041.521.063.781c.264.071.514.165.754.28l.657-.562h.927l1.322 1.538v.923l-.805.687c.04.187.061.38.07.573l1.016.586.235.893-1.015 1.753-.896.235s-.526-.304-.79-.454a4.015 4.015 0 0 1-.472.311l.095 1.05-.655.654-2.02.184-.656-.653zm8.241 5.16l-.574.15-.507-.291c-.095.075-.197.14-.304.2l.061.674-.419.418-1.295.119-.42-.42-.048-.522a2.704 2.704 0 0 1-.404-.145l-.462.39-.078.043c-.026.015-.516-.043-.516-.043l-.841-.993v-.592l.485-.41a2.194 2.194 0 0 1-.066-.408l-.636-.29-.17-.492.02-.082.542-1.18.576-.15s.364.165.547.25c.111-.092.232-.173.359-.244l-.053-.661.419-.418 1.298-.105.42.42.04.5c.17.046.33.107.484.18l.421-.361h.595l.848.987v.593l-.515.441c.025.12.039.243.044.368l.652.375.15.574-.653 1.125z"/></svg></svg>