<svg width="24" height="22" xmlns="http://www.w3.org/2000/svg" xmlns:xlink="http://www.w3.org/1999/xlink" xmlns:svgjs="http://svgjs.com/svgjs" viewBox="0 0.042 24 21.916" fill="#fff"><svg xmlns="http://www.w3.org/2000/svg" width="24" height="22" viewBox="2 2 22.997 21"><path paint-order="stroke fill markers" fill-rule="evenodd" d="M22.666 8.099h-5.16c-.224 0-.286-.142-.16-.334.528-.793.828-1.86.668-3.675C17.88 2.58 17.559 2 17.116 2c-.73 0-1.789 1.58-2.862 3.143-1.397 2.034-4.08 3.67-5.047 4.217-.197.111-.53.26-.741.339L5.744 10.71a.639.639 0 0 0-.382.562v8.27c0 .233.158.513.354.627l1.172.681c.196.114.536.204.76.221 1.233.094 2.036.608 2.738 1.053.191.121.479.348.666.476.368.251.808.4 1.282.4h8.175c1.16 0 2.346-.87 2.584-2.013.047-.227.077-.601.12-.829l1.726-9.217c.043-.228.08-.602.042-.83-.191-1.143-1.155-2.012-2.315-2.012zM4.166 9.91h-1.49a.689.689 0 0 0-.676.7v9.656c0 .387.303.7.677.7h1.49a.689.689 0 0 0 .676-.7v-9.656c0-.387-.303-.7-.677-.7z"/></svg></svg>