<svg width="38" height="39" xmlns="http://www.w3.org/2000/svg" xmlns:xlink="http://www.w3.org/1999/xlink" xmlns:svgjs="http://svgjs.com/svgjs" viewBox="0.005 0 37.989 39" fill="#fff"><svg xmlns="http://www.w3.org/2000/svg" width="38" height="39" viewBox="1.997 2.009 37.006 37.99"><path paint-order="stroke fill markers" fill-rule="evenodd" d="M12.743 11.656l-5.206.01s-4.116.186-4.109 4.171v.11a3.282 3.282 0 0 0-1.43 2.712c0 1.13.571 2.127 1.438 2.72.006.489.167 4.547 3.956 4.542 0 0 1.569.058 1.433 2.572l.016 9.916s-.25 1.59 1.346 1.59c0 0 4.657-.674 2.34-5.433 1.743-1.806-.75-2.86.243-5.817 0 0 1.342-1.862 1.34-2.923l.06-12.663c.005-.004.256-1.511-1.427-1.507zm23.858 2.558L36.582 2.64c-.004-1.513-1.277.17-1.277.17-6.045 9.428-18.549 8.693-18.549 8.693-1.475.003-1.24 1.262-1.24 1.262l.022 10.931c0 1.26 1.321 1.259 1.321 1.259 13.975-.027 18.754 8.81 18.754 8.81s1.103 1.37 1.025-.06l-.023-11.55c1.415-.761 2.392-2.25 2.388-3.975 0-1.729-.984-3.205-2.402-3.966zm-13.757-1.55s8.22-1.155 12.197-7.335c0 0-1.545 7.226-12.197 7.334zm15.286 6.805s.424-1.969-1.158-4.289c0 0 2.124 1.237 1.158 4.29z"/></svg></svg>