<svg width="42" height="39" xmlns="http://www.w3.org/2000/svg" xmlns:xlink="http://www.w3.org/1999/xlink" xmlns:svgjs="http://svgjs.com/svgjs" viewBox="0.422 0 41.157 39" fill="#fc635e"><svg xmlns="http://www.w3.org/2000/svg" width="42" height="39" viewBox="1.678 2.005 40.094 37.993"><path paint-order="stroke fill markers" fill-rule="evenodd" d="M26.906 38.941c-.695-.511-.769-1.279-.769-1.279l-.26-1.666h-8.305l-.262 1.665s-.072.769-.767 1.28c-.694.51-1.243.95-.694 1.024.528.071 5.508.006 5.876 0 .368.006 5.347.071 5.876 0 .547-.073-.001-.511-.695-1.024zM12.37 25.63c2.219-.017 2.495-.552 3.218-2.78 1.334-3.517 7.341.92 3.619 2.46-3.723 1.542-9.056.338-6.837.32zM35.12 2.455c-1.077-.868-2.86-.44-3.984.954L19.753 19.587c-1.124 1.394-1.118 1.128-.042 1.995 1.077.868.817.93 1.941-.465L35.034 6.552c1.124-1.396 1.163-3.23.086-4.097zM32.193 4.39s-.166-.194-.72-.638c.83-1.358 2.465-1.109 2.465-1.109-1.55.916-1.745 1.747-1.745 1.747zm7.975 3.53h-5.006l-2.21 2.406h6.414V29.58H4.084V10.327h20.524l1.695-2.406H3.28c-.885 0-1.603.719-1.603 1.604v23.262c0 .886.718 1.605 1.603 1.605h36.887c.886 0 1.604-.719 1.604-1.605V9.525c0-.885-.718-1.604-1.604-1.604z"/></svg></svg>