<svg width="35" height="40" xmlns="http://www.w3.org/2000/svg" xmlns:xlink="http://www.w3.org/1999/xlink" xmlns:svgjs="http://svgjs.com/svgjs" viewBox="0.554 0 33.893 40" fill="#fff"><svg xmlns="http://www.w3.org/2000/svg" width="35" height="40" viewBox="2.201 1.981 33.075 39.035"><path paint-order="stroke fill markers" fill-rule="evenodd" d="M28.256 22.772c2.379-2.795 3.947-5.49 4.973-7.958.348-.84.822-2.17 1.037-2.973.11-.414.228-.907.336-1.464.025-.118.042-.227.065-.346.026-.15.053-.303.077-.46.27-1.652.31-3.082.257-4.216-.043-.907-.115-1.676-.063-1.731.028-.033.058-.068.085-.105.218-.27.31-.547.216-.621l-.058-.043c-.032-.024-.007-.26.053-.527.062-.268-.126-.41-.421-.319-.294.091-.566.143-.605.115l-.07-.052c-.098-.071-.35.09-.564.359l-.06.083c-.031.047-.804.13-1.71.306-1.56.306-4.06 1.026-6.78 2.724-4.408 2.673-7.197 6.416-8.48 8.435-.49.77-1.575 1.318-2.497 1.287-7.415-.248-10.59 4.868-11.735 7.524-.361.837.196 1.503 1.12 1.487 16.32-.301 17.807 9.65 17.748 13.656-.015.91.565 1.355 1.357.885 5.931-3.515 5.54-10.158 4.99-13.205-.162-.895.136-2.144.729-2.84zm-1.838-4.488c-1.008 1.092-2.708 1.379-4.082.6-1.575-.89-2.125-2.836-1.23-4.345.11-.188.237-.355.378-.509 1.005-1.091 2.705-1.376 4.083-.6 1.571.888 2.125 2.835 1.23 4.346a3.159 3.159 0 0 1-.38.508zM12.064 40.218c2.927-1.73 4.621-4.92 5.417-6.824.351-.84-.13-1.257-.91-.77-3.069 1.92-4.709 4.93-5.467 6.748-.35.842.168 1.314.96.846zm-5.826.632c4.47-2.423 6.873-7.515 7.845-10.09.322-.85-.164-1.262-.957-.796-4.693 2.769-6.985 7.542-7.902 10.003-.316.852.206 1.32 1.014.883zm-1.05-5.927c2.928-1.728 4.62-4.918 5.417-6.82.352-.84-.13-1.257-.91-.77-3.067 1.918-4.708 4.926-5.467 6.745-.351.84.169 1.312.96.845z"/></svg></svg>