<svg width="38" height="38" xmlns="http://www.w3.org/2000/svg" xmlns:xlink="http://www.w3.org/1999/xlink" xmlns:svgjs="http://svgjs.com/svgjs" fill="#fff"><svg xmlns="http://www.w3.org/2000/svg" width="38" height="38" viewBox="2 1.999 37 37"><path paint-order="stroke fill markers" fill-rule="evenodd" d="M35.11 2H5.895A3.905 3.905 0 0 0 2 5.893v29.211A3.908 3.908 0 0 0 5.895 39H35.11A3.906 3.906 0 0 0 39 35.105V5.894a3.903 3.903 0 0 0-3.89-3.895zM6.225 7.27h28.55v19.475H6.224V7.27zm30.101 26.492H16.391a3.327 3.327 0 0 1-3.235 2.56 3.326 3.326 0 0 1-3.234-2.56H4.676V32.22h5.242a3.332 3.332 0 0 1 3.238-2.567 3.331 3.331 0 0 1 3.239 2.567h19.931v1.542zm-12.42-23.67h3.982v13.362h-3.981V10.093zm-10.985 5.139h3.983v8.223H12.92V15.23zm5.493-2.183h3.984v10.406h-3.984V13.048z"/></svg></svg>